<svg xmlns="http://www.w3.org/2000/svg" width="125" height="24" viewBox="0 0 125 24" fill="none">
  <path fill="#FFFFFF" d="M13.214 19.267c.021-2.203-.537-3.994-1.247-4.001-.71-.007-1.304 1.773-1.326 3.976-.021 2.203.537 3.994 1.248 4 .71.008 1.303-1.772 1.325-3.975Zm-4.121-.501c1.21-1.841 1.708-3.65 1.114-4.04-.594-.39-2.055.787-3.264 2.628-1.21 1.842-1.708 3.65-1.115 4.04.594.39 2.056-.786 3.265-2.628Zm-3.2-2.642c2.012-.895 3.41-2.147 3.121-2.796-.288-.65-2.154-.45-4.167.446-2.013.895-3.41 2.147-3.122 2.796.289.65 2.155.45 4.168-.446Zm2.879-4.616c.109-.702-1.569-1.543-3.746-1.878-2.177-.335-4.03-.038-4.138.664-.108.703 1.57 1.544 3.746 1.879 2.178.335 4.03.037 4.138-.665Zm.786-1.673c.47-.532-.486-2.147-2.137-3.605-1.65-1.46-3.37-2.21-3.84-1.678-.47.532.486 2.147 2.137 3.605 1.65 1.46 3.37 2.21 3.84 1.678Zm1.554-.978c.683-.193.751-2.068.151-4.188-.6-2.12-1.64-3.681-2.323-3.488-.684.194-.752 2.069-.152 4.189s1.64 3.68 2.324 3.487Zm4.228-3.421c.642-2.108.611-3.984-.068-4.19-.68-.208-1.75 1.333-2.392 3.44-.642 2.108-.611 3.984.069 4.191.68.207 1.75-1.334 2.392-3.441Zm3.02 2.848c1.68-1.427 2.668-3.022 2.208-3.563-.46-.542-2.194.176-3.873 1.602-1.68 1.426-2.667 3.021-2.207 3.563.46.541 2.194-.176 3.873-1.602Zm1.002 4.029c2.184-.292 3.878-1.1 3.783-1.804-.094-.704-1.94-1.038-4.124-.746-2.183.292-3.877 1.1-3.783 1.804.094.704 1.94 1.038 4.124.746Zm2.813 4.459c.302-.643-1.07-1.923-3.066-2.857-1.994-.935-3.856-1.172-4.157-.528-.302.643 1.07 1.922 3.066 2.857 1.994.935 3.856 1.171 4.157.528Zm-4.196 4.746c.601-.378.138-2.196-1.034-4.061-1.173-1.865-2.611-3.07-3.213-2.692-.601.378-.138 2.196 1.034 4.061 1.173 1.865 2.611 3.07 3.213 2.692Z"/>
  <text x="28" y="15" fill="#FFFFFF" font-family="system-ui, -apple-system, 'Segoe UI', Roboto, Arial, sans-serif" font-size="14" font-weight="700" letter-spacing="0.02em" dominant-baseline="middle" text-anchor="start">BRAUNWELL</text>
</svg>